<?xml version="1.0" standalone="no"?>
<!DOCTYPE svg PUBLIC "-//W3C//DTD SVG 20010904//EN"
 "http://www.w3.org/TR/2001/REC-SVG-20010904/DTD/svg10.dtd">
<svg version="1.0" xmlns="http://www.w3.org/2000/svg"
 width="1000.000000pt" height="1000.000000pt" viewBox="0 0 1000.000000 1000.000000"
 preserveAspectRatio="xMidYMid meet">
<metadata>
Created by potrace 1.14, written by Peter Selinger 2001-2017
</metadata>
<g transform="translate(0.000000,1000.000000) scale(0.100000,-0.100000)"
fill="#000000" stroke="none">
<path d="M4650 9989 c-478 -42 -838 -115 -1245 -253 -751 -254 -1376 -639
-1930 -1191 -799 -797 -1287 -1791 -1436 -2928 -66 -503 -34 -1192 77 -1692
262 -1174 925 -2205 1878 -2922 264 -198 477 -328 791 -483 902 -445 1882
-607 2874 -475 718 95 1400 343 2027 736 432 271 890 682 1215 1089 571 717
935 1569 1054 2471 69 518 58 1013 -34 1544 -118 680 -429 1429 -824 1985
-629 884 -1481 1522 -2487 1862 -421 142 -759 211 -1235 254 -172 15 -569 17
-725 3z m-1995 -1839 c-3 -5 -12 -10 -18 -10 -7 0 -6 4 3 10 19 12 23 12 15 0z
m-25 -66 c0 -8 -4 -12 -10 -9 -5 3 -10 10 -10 16 0 5 5 9 10 9 6 0 10 -7 10
-16z m-20 -35 c17 -31 8 -40 -19 -20 -13 10 -21 23 -17 30 11 17 24 13 36 -10z
m-50 -12 c0 -1 4 -16 9 -33 7 -26 6 -30 -11 -31 -20 -2 -39 32 -31 55 4 10 33
18 33 9z m-230 -62 c0 -8 -4 -17 -10 -20 -6 -3 -9 4 -8 19 2 25 18 26 18 1z
m104 -22 c4 -5 13 -8 19 -8 18 0 19 -28 3 -50 -12 -16 -16 -17 -29 -6 -9 7
-20 10 -25 7 -11 -6 -9 21 2 47 9 18 18 21 30 10z m126 -9 c0 -9 -73 -84 -83
-84 -4 0 4 10 18 23 14 12 28 31 30 42 2 11 4 21 4 23 2 5 31 2 31 -4z m6748
-2086 c26 -265 72 -699 82 -768 5 -41 10 -80 10 -86 0 -7 -29 -14 -72 -18
l-71 -8 -349 349 c-191 191 -348 344 -348 339 0 -21 43 -438 60 -585 11 -91
19 -166 17 -167 -1 -1 -32 -5 -68 -8 l-67 -7 -6 33 c-3 18 -17 146 -31 283
-14 138 -34 329 -45 425 -29 256 -33 236 47 244 l67 7 348 -348 c191 -191 349
-345 351 -343 3 3 -4 82 -14 175 -36 332 -59 549 -59 567 0 13 10 18 48 21 26
2 56 4 68 5 19 2 21 -6 32 -110z m-1241 -48 c42 -25 59 -60 70 -147 l9 -71
-35 -6 c-20 -3 -53 -6 -73 -6 -37 0 -38 1 -38 38 0 20 -3 47 -6 60 -6 22 -11
23 -53 17 -25 -3 -148 -16 -273 -28 -125 -13 -229 -25 -232 -27 -4 -5 29 -353
56 -590 13 -107 15 -115 36 -118 12 -2 84 4 160 13 75 9 189 21 252 27 63 6
118 14 121 17 6 6 -16 240 -23 247 -2 1 -51 -4 -108 -11 -58 -8 -119 -15 -136
-15 -31 0 -31 1 -38 62 -3 34 -5 63 -3 65 3 3 377 43 403 43 7 0 14 -28 18
-72 3 -40 13 -132 22 -204 15 -123 15 -133 -1 -167 -34 -72 -70 -81 -488 -123
-207 -20 -258 -17 -297 21 -37 36 -46 75 -70 330 -11 116 -28 273 -37 350 -16
133 -15 142 1 177 31 64 59 74 276 97 107 12 224 25 260 30 119 16 192 13 227
-9z m-1063 -122 c3 -24 15 -135 26 -248 11 -113 29 -281 39 -375 11 -93 23
-202 26 -241 l7 -71 -72 -7 -72 -7 -342 345 c-187 191 -344 346 -348 346 -7 0
-6 -17 18 -230 24 -221 54 -523 52 -526 -2 -1 -32 -5 -69 -9 l-65 -7 -32 304
c-40 368 -60 556 -68 624 l-6 51 72 7 72 6 343 -347 c188 -192 345 -346 348
-343 6 5 -38 459 -62 650 -6 46 -11 90 -11 97 0 7 20 13 53 16 28 2 59 4 68 5
12 2 18 -9 23 -40z m-1237 -118 c47 -28 64 -62 73 -143 5 -39 7 -73 6 -75 -2
-1 -33 -6 -69 -10 l-65 -8 -7 58 c-4 32 -10 60 -14 62 -10 6 -540 -49 -548
-58 -4 -4 1 -84 10 -179 47 -452 55 -518 61 -524 8 -8 538 48 550 58 9 8 -12
237 -23 243 -3 2 -53 -3 -111 -11 -58 -7 -118 -12 -135 -11 -29 3 -30 5 -37
63 -3 33 -5 61 -5 62 5 4 410 43 413 40 6 -6 31 -219 39 -332 5 -80 4 -94 -14
-122 -33 -53 -67 -63 -294 -89 -316 -36 -416 -40 -455 -20 -66 34 -64 28 -122
576 -25 243 -25 277 0 317 31 52 63 62 277 84 109 11 225 24 258 28 111 15
177 13 212 -9z m-1053 -181 c4 -51 14 -149 22 -218 8 -69 26 -236 39 -371 14
-135 27 -255 30 -267 5 -20 0 -22 -49 -28 -96 -12 -88 -26 -111 205 -19 193
-21 205 -40 203 -313 -30 -562 -57 -567 -62 -7 -6 12 -215 31 -356 5 -33 8
-61 7 -61 0 -1 -33 -5 -72 -9 l-70 -7 -18 194 c-10 106 -24 240 -31 298 -20
156 -50 479 -44 483 2 3 32 7 66 11 73 8 64 31 89 -221 10 -95 21 -178 25
-185 6 -9 45 -8 176 6 248 25 404 43 408 47 3 4 -32 373 -39 401 -3 13 4 19
28 23 42 7 100 11 107 8 3 -1 9 -44 13 -94z m-1269 -91 c67 -35 128 -102 153
-170 23 -61 53 -299 55 -433 1 -97 -20 -166 -68 -222 -40 -47 -132 -99 -201
-113 -35 -7 -527 -60 -559 -60 -6 0 -17 81 -40 311 -13 134 -31 300 -39 369
-8 69 -18 164 -22 211 l-7 86 134 13 c74 7 184 18 244 25 61 8 153 12 205 11
80 -2 103 -6 145 -28z m-1002 -115 c4 -32 20 -186 37 -343 16 -157 37 -347 46
-423 8 -76 14 -141 11 -143 -2 -3 -33 -7 -69 -11 l-65 -6 -11 94 c-7 52 -17
144 -23 204 -12 119 -15 129 -33 122 -7 -3 -136 -17 -287 -32 -151 -15 -277
-31 -280 -34 -4 -3 -3 -33 2 -67 11 -81 39 -347 36 -350 -1 -1 -32 -5 -68 -8
l-65 -7 -12 93 c-7 51 -26 224 -43 383 -16 160 -35 336 -41 393 -6 56 -9 104
-7 106 2 2 34 7 70 10 l65 7 18 -168 c27 -271 23 -253 60 -253 28 0 105 8 391
40 55 6 115 13 134 16 l34 5 -6 57 c-32 294 -37 355 -32 361 7 6 115 19 126
14 3 -1 9 -28 12 -60z m-2408 27 c3 -5 1 -10 -4 -10 -6 0 -11 5 -11 10 0 6 2
10 4 10 3 0 8 -4 11 -10z m5 -24 c0 -3 -4 -8 -10 -11 -5 -3 -10 -1 -10 4 0 6
5 11 10 11 6 0 10 -2 10 -4z m1314 -112 c11 -85 19 -79 -111 -92 -272 -28
-475 -50 -477 -53 -4 -5 24 -282 29 -287 2 -2 117 8 254 24 138 15 253 25 255
23 2 -2 6 -31 9 -65 l5 -60 -192 -22 c-105 -12 -219 -25 -253 -28 -37 -4 -63
-11 -63 -18 0 -6 9 -101 20 -210 12 -109 20 -200 18 -201 -2 -1 -33 -5 -69 -8
l-66 -6 -12 107 c-6 59 -25 238 -41 397 -16 160 -34 323 -40 363 -16 116 -19
109 58 116 37 4 128 14 202 23 303 34 367 41 416 42 l51 1 7 -46z m-1203 -368
c10 -13 -1 -44 -18 -50 -28 -11 -89 34 -80 59 11 28 76 22 98 -9z m65 -77 c11
-18 -13 -34 -31 -19 -8 7 -15 16 -15 21 0 13 38 11 46 -2z m-153 -16 c-7 -2
-19 -2 -25 0 -7 3 -2 5 12 5 14 0 19 -2 13 -5z m7429 -1685 c-10 -10 -7 -15
10 -25 21 -13 21 -13 -12 -7 -59 11 -67 24 -22 40 31 12 41 9 24 -8z m-102 -8
c0 -5 -5 -10 -11 -10 -5 0 -7 5 -4 10 3 6 8 10 11 10 2 0 4 -4 4 -10z m160
-164 c0 -11 -19 -15 -25 -6 -3 5 1 10 9 10 9 0 16 -2 16 -4z"/>
<path d="M3060 5180 c-91 -10 -171 -19 -179 -19 -11 -1 -12 -12 -7 -53 3 -29
15 -145 26 -258 22 -228 39 -379 45 -396 3 -11 67 -6 298 22 146 18 180 29
224 74 49 50 57 99 43 237 -22 216 -36 291 -63 332 -53 79 -124 91 -387 61z"/>
</g>
</svg>
